<?xml version="1.0" encoding="UTF-8" standalone="no"?>
<!-- Uploaded to: SVG Repo, www.svgrepo.com, Generator: SVG Repo Mixer Tools -->

<svg
   width="800px"
   height="800px"
   viewBox="-20 0 64 64"
   version="1.1"
   id="svg13"
   xmlns="http://www.w3.org/2000/svg"
   xmlns:svg="http://www.w3.org/2000/svg"
   xmlns:rdf="http://www.w3.org/1999/02/22-rdf-syntax-ns#"
   xmlns:cc="http://creativecommons.org/ns#"
   xmlns:dc="http://purl.org/dc/elements/1.1/">
  <title
     id="title2">Bottle</title>
  <desc
     id="desc4">Created with Sketch.</desc>
  <defs
     id="defs6">
    <rect
       x="201.62867"
       y="501.35116"
       width="364.71445"
       height="174.67709"
       id="rect81969" />
    <rect
       x="401.3895"
       y="42.822038"
       width="323.27724"
       height="185.06155"
       id="rect69514" />
    <rect
       x="573.97381"
       y="115.64617"
       width="208.37841"
       height="211.9498"
       id="rect33310" />
    <rect
       x="523.81811"
       y="120.35791"
       width="236.03994"
       height="103.3301"
       id="rect9936" />
    <rect
       x="573.97381"
       y="115.64617"
       width="208.37841"
       height="211.9498"
       id="rect46857" />
    <rect
       x="573.97381"
       y="115.64617"
       width="208.37841"
       height="211.9498"
       id="rect50873" />
    <rect
       x="573.97381"
       y="115.64617"
       width="208.37841"
       height="211.9498"
       id="rect51015" />
    <rect
       x="401.3895"
       y="42.822038"
       width="323.27724"
       height="185.06155"
       id="rect76704" />
    <rect
       x="573.97381"
       y="115.64617"
       width="208.37841"
       height="211.9498"
       id="rect77022" />
    <rect
       x="573.97381"
       y="115.64617"
       width="208.37841"
       height="211.9498"
       id="rect77044" />
  </defs>
  <metadata
     id="metadata938">
    <rdf:RDF>
      <cc:Work
         rdf:about="">
        <dc:title>Bottle</dc:title>
      </cc:Work>
    </rdf:RDF>
  </metadata>
  <path
     style="display:inline;fill:#b3740d;fill-opacity:1;stroke:none;stroke-width:2.6247;stroke-opacity:1;paint-order:markers fill stroke"
     d="m 11.06067,63.080568 c -0.541959,-0.05884 -0.746849,-0.156667 -0.691654,-0.330245 0.238628,-0.750457 0.458929,-4.264276 0.38498,-6.140506 -0.317033,-8.043855 -5.9717936,-15.975781 -13.4977494,-18.933272 -4.201775,-1.65118 -9.0637606,-1.991519 -13.3498456,-0.934484 -0.990958,0.244385 -1.834819,0.379751 -1.875246,0.300808 -0.193604,-0.378028 -0.247875,-3.896302 -0.08308,-5.386018 1.007532,-9.108047 6.251186,-16.971195 14.5117536,-21.7611723 5.0642133,-2.9365359 9.9130542,-4.212503 16.0080614,-4.212503 6.09501,0 10.943849,1.2759671 16.008063,4.212503 C 40.610801,16.932198 45.995857,30.627242 41.605124,43.285206 38.602337,51.941888 31.165918,58.901913 21.865656,61.760116 18.80283,62.701402 13.517534,63.347301 11.06067,63.080568 Z M 26.603745,54.42869 c 2.592586,-1.404084 3.718413,-5.259591 2.449667,-8.389098 -1.66912,-4.117056 -6.541107,-4.648064 -8.763443,-0.955142 -1.827648,3.037044 -1.154182,7.188667 1.466816,9.042318 1.587424,1.122674 3.151578,1.22011 4.84696,0.301934 z M 36.815988,37.97124 c 3.886404,-2.147201 4.020263,-8.664025 0.230016,-11.197973 -0.768809,-0.513983 -0.980841,-0.564686 -2.357974,-0.563845 -1.333891,7.22e-4 -1.6096,0.06219 -2.326758,0.51798 -1.071191,0.680797 -2.195485,2.209889 -2.555402,3.47546 -0.792502,2.786674 0.118592,5.959446 2.117219,7.372935 1.632874,1.154825 3.277808,1.287765 4.892899,0.395443 z M -1.1092523,25.790497 c 0.93654558,-0.354585 2.3567949,-1.873695 2.8114761,-3.007175 1.300361,-3.241685 0.2259428,-6.918253 -2.49044542,-8.522092 -1.82943778,-1.080159 -4.26176878,-0.551364 -5.75549078,1.251256 -0.810605,0.978236 -1.214174,1.923718 -1.457063,3.413614 -0.15999,0.981373 -0.1492,1.358585 0.06813,2.382348 0.316,1.488546 0.673617,2.209571 1.615669,3.257497 1.438733,1.60043 3.1513154,2.003129 5.2077241,1.224552 z M 26.746417,25.521806 c 1.679965,-1.034292 2.686151,-2.913395 2.805299,-5.23904 0.0899,-1.754694 -0.326841,-3.183921 -1.315216,-4.510563 -2.428249,-3.259318 -6.865856,-2.491313 -8.476617,1.467028 -0.380282,0.934514 -0.442221,1.318704 -0.438855,2.721993 0.0045,1.830137 0.3016,2.81101 1.262039,4.165102 1.403206,1.978347 4.19128,2.609609 6.16335,1.39548 z m -13.541779,-4.24781 c 1.73502,-1.145338 2.687859,-3.085366 2.687859,-5.472615 0,-2.391225 -1.14681,-4.596836 -2.930067,-5.635281 -1.138764,-0.6631352 -2.765696,-0.7492503 -3.9512689,-0.20914 -1.1912566,0.542697 -2.3830986,1.852596 -2.945705,3.237483 -0.3799884,0.935362 -0.4435177,1.321782 -0.4330428,2.633969 0.014336,1.792845 0.3534947,2.895904 1.264774,4.113173 1.1492801,1.535185 2.4173319,2.165701 4.1571137,2.067047 0.93621,-0.05308 1.312773,-0.181733 2.150337,-0.734636 z"
     id="path1609" />
</svg>
