<?xml version="1.0" encoding="UTF-8" standalone="no"?>
<!-- Uploaded to: SVG Repo, www.svgrepo.com, Generator: SVG Repo Mixer Tools -->

<svg
   width="800px"
   height="800px"
   viewBox="-20 0 64 64"
   version="1.1"
   id="svg13"
   xmlns="http://www.w3.org/2000/svg"
   xmlns:svg="http://www.w3.org/2000/svg"
   xmlns:rdf="http://www.w3.org/1999/02/22-rdf-syntax-ns#"
   xmlns:cc="http://creativecommons.org/ns#"
   xmlns:dc="http://purl.org/dc/elements/1.1/"
   xmlns:sketch="http://www.bohemiancoding.com/sketch/ns">
  <title
     id="title2">Bottle</title>
  <desc
     id="desc4">Created with Sketch.</desc>
  <defs
     id="defs6">
    <rect
       x="401.3895"
       y="42.822038"
       width="323.27724"
       height="185.06155"
       id="rect69514" />
    <rect
       x="573.97381"
       y="115.64617"
       width="208.37841"
       height="211.9498"
       id="rect33310" />
    <rect
       x="523.81811"
       y="120.35791"
       width="236.03994"
       height="103.3301"
       id="rect9936" />
    <rect
       x="573.97381"
       y="115.64617"
       width="208.37841"
       height="211.9498"
       id="rect46857" />
    <rect
       x="573.97381"
       y="115.64617"
       width="208.37841"
       height="211.9498"
       id="rect50873" />
    <rect
       x="573.97381"
       y="115.64617"
       width="208.37841"
       height="211.9498"
       id="rect51015" />
    <rect
       x="401.3895"
       y="42.822038"
       width="323.27724"
       height="185.06155"
       id="rect76704" />
    <rect
       x="573.97381"
       y="115.64617"
       width="208.37841"
       height="211.9498"
       id="rect77022" />
    <rect
       x="573.97381"
       y="115.64617"
       width="208.37841"
       height="211.9498"
       id="rect77044" />
  </defs>
  <g
     id="Page-1"
     stroke="none"
     stroke-width="1"
     fill="none"
     fill-rule="evenodd"
     sketch:type="MSPage"
     style="display:inline"
     transform="translate(-10.364146,0.44755245)">
    <g
       id="Bottle"
       sketch:type="MSLayerGroup"
       transform="translate(3.4714452,1)"
       stroke="#6b6c6e"
       stroke-width="2"
       style="display:inline">
      <path
         d="m 7,6 v 7 C 7,13 0,23.9 0,25 v 35 c 0,1.1 0.9,2 2,2 h 18 c 1.1,0 2,-0.9 2,-2 V 25 C 22,23.9 15,13 15,13 V 6"
         id="Shape"
         sketch:type="MSShapeGroup"
         style="display:inline;stroke:#b3740d;stroke-opacity:1" />
      <path
         d="M -0.10709863,35.695822 0,60 c 0.00484721,1.099989 0.9,2 2,2 h 18 c 1.1,0 1.999635,-0.9 2,-2 L 21.882618,35.93149 Z"
         id="path3515"
         sketch:type="MSShapeGroup"
         style="display:none;fill:#b3740d;fill-opacity:1;stroke:#b3740d;stroke-opacity:1" />
      <path
         d="m 17,4 c 0,1.1 -0.9,2 -2,2 H 7 C 5.9,6 5,5.1 5,4 V 2 C 5,0.9 5.9,0 7,0 h 8 c 1.1,0 2,0.9 2,2 z"
         id="path9"
         sketch:type="MSShapeGroup"
         style="display:inline;stroke:#b3740d;stroke-opacity:1" />
    </g>
  </g>
  <metadata
     id="metadata938">
    <rdf:RDF>
      <cc:Work
         rdf:about="">
        <dc:title>Bottle</dc:title>
      </cc:Work>
    </rdf:RDF>
  </metadata>
  <g
     id="layer3"
     style="display:inline">
    <polygon
       points="160,86.213 231.213,86.213 231.213,406.213 160,406.213 246.213,492.427 332.427,406.213 261.213,406.213 261.213,86.213 332.427,86.213 246.213,0 "
       id="polygon2"
       transform="matrix(0.06994258,0,0,0.12923899,5.216064,0.30795946)"
       style="display:none;fill:#b3740d;fill-opacity:1;stroke:none" />
    <path
       id="path53429"
       style="display:inline;fill:#b3740d;fill-opacity:1;stroke:none;stroke-width:0.0679599;stroke-opacity:1"
       d="M -8.7102694,38.238122 -14.38258,32.186207 v 4.998883 h -5.124639 c 0.0018,0.579884 0.0052,1.379286 7.13e-4,1.959077 -9.17e-4,0.122115 -0.0024,0.02472 -0.0034,0.146831 h 5.127337 v 4.999039 z" />
    <path
       id="path53511"
       style="display:inline;fill:#b3740d;fill-opacity:1;stroke:none;stroke-width:0.0679599;stroke-opacity:1"
       d="m 17.036209,38.238122 5.67231,6.051915 v -4.998883 h 5.124639 c -0.0018,-0.579884 -0.0052,-1.379286 -7.13e-4,-1.959077 9.17e-4,-0.122115 0.0024,-0.02472 0.0034,-0.146831 h -5.127337 v -4.999039 z" />
  </g>
  <g
     id="g77048"
     style="display:inline">
    <text
       xml:space="preserve"
       transform="matrix(0.14340304,0,0,0.18363434,-65.996057,22.576494)"
       id="text77020"
       style="font-style:normal;font-variant:normal;font-weight:bold;font-stretch:normal;font-size:96px;line-height:125%;font-family:sans-serif;-inkscape-font-specification:'sans-serif, Bold';font-variant-ligatures:normal;font-variant-caps:normal;font-variant-numeric:normal;font-variant-east-asian:normal;letter-spacing:0px;word-spacing:0px;white-space:pre;shape-inside:url(#rect77022);display:inline;fill:#b3740d;fill-opacity:1;stroke:none;stroke-width:1px;stroke-linecap:butt;stroke-linejoin:miter;stroke-opacity:1"><tspan
         x="573.97461"
         y="200.58398"
         id="tspan1086">m</tspan></text>
    <text
       xml:space="preserve"
       transform="matrix(0.14340304,0,0,0.18363434,-52.665929,22.576494)"
       id="text77042"
       style="font-style:normal;font-variant:normal;font-weight:bold;font-stretch:normal;font-size:96px;line-height:125%;font-family:sans-serif;-inkscape-font-specification:'sans-serif, Bold';font-variant-ligatures:normal;font-variant-caps:normal;font-variant-numeric:normal;font-variant-east-asian:normal;letter-spacing:0px;word-spacing:0px;white-space:pre;shape-inside:url(#rect77044);display:inline;fill:#b3740d;fill-opacity:1;stroke:none;stroke-width:1px;stroke-linecap:butt;stroke-linejoin:miter;stroke-opacity:1"><tspan
         x="573.97461"
         y="200.58398"
         id="tspan1088">m</tspan></text>
  </g>
</svg>
