<?xml version="1.0" encoding="UTF-8" standalone="no"?>
<!-- Uploaded to: SVG Repo, www.svgrepo.com, Generator: SVG Repo Mixer Tools -->

<svg
   width="800px"
   height="800px"
   viewBox="-20 0 64 64"
   version="1.1"
   id="svg13"
   xmlns="http://www.w3.org/2000/svg"
   xmlns:svg="http://www.w3.org/2000/svg"
   xmlns:rdf="http://www.w3.org/1999/02/22-rdf-syntax-ns#"
   xmlns:cc="http://creativecommons.org/ns#"
   xmlns:dc="http://purl.org/dc/elements/1.1/">
  <title
     id="title2">Bottle</title>
  <desc
     id="desc4">Created with Sketch.</desc>
  <defs
     id="defs6">
    <rect
       x="401.3895"
       y="42.822038"
       width="323.27724"
       height="185.06155"
       id="rect69514" />
    <rect
       x="573.97381"
       y="115.64617"
       width="208.37841"
       height="211.9498"
       id="rect33310" />
    <rect
       x="523.81811"
       y="120.35791"
       width="236.03994"
       height="103.3301"
       id="rect9936" />
    <rect
       x="573.97381"
       y="115.64617"
       width="208.37841"
       height="211.9498"
       id="rect46857" />
    <rect
       x="573.97381"
       y="115.64617"
       width="208.37841"
       height="211.9498"
       id="rect50873" />
    <rect
       x="573.97381"
       y="115.64617"
       width="208.37841"
       height="211.9498"
       id="rect51015" />
    <rect
       x="401.3895"
       y="42.822038"
       width="323.27724"
       height="185.06155"
       id="rect76704" />
    <rect
       x="573.97381"
       y="115.64617"
       width="208.37841"
       height="211.9498"
       id="rect77022" />
    <rect
       x="573.97381"
       y="115.64617"
       width="208.37841"
       height="211.9498"
       id="rect77044" />
  </defs>
  <metadata
     id="metadata938">
    <rdf:RDF>
      <cc:Work
         rdf:about="">
        <dc:title>Bottle</dc:title>
      </cc:Work>
    </rdf:RDF>
  </metadata>
  <path
     d="M 31.16092,45.426613 C 28.040349,43.401155 26.586945,40.322998 26.586945,35.73981 v -5.80136 h 4.67579 V 15.792809 H -6.4615976 V 29.93845 h 4.6757887 v 5.80136 c 0,4.893076 -1.2465249,7.7903 -4.1683355,9.686803 -7.8856036,5.118421 -11.1019066,18.64988 -11.1019066,18.64988 v 0 c 38.92636,0.114212 38.971046,2.2e-4 58.913241,0 l -0.698549,0.06064 c 0,0 -3.200037,-14.298386 -9.997721,-18.710511 z"
     id="path2"
     style="fill:#b3740d;fill-opacity:1;stroke:none;stroke-width:0.365297" />
</svg>
