<?xml version="1.0" encoding="UTF-8" standalone="no"?>
<!-- Uploaded to: SVG Repo, www.svgrepo.com, Generator: SVG Repo Mixer Tools -->

<svg
   width="800px"
   height="800px"
   viewBox="-20 0 64 64"
   version="1.1"
   id="svg13"
   xmlns="http://www.w3.org/2000/svg"
   xmlns:svg="http://www.w3.org/2000/svg"
   xmlns:rdf="http://www.w3.org/1999/02/22-rdf-syntax-ns#"
   xmlns:cc="http://creativecommons.org/ns#"
   xmlns:dc="http://purl.org/dc/elements/1.1/">
  <title
     id="title2">Bottle</title>
  <desc
     id="desc4">Created with Sketch.</desc>
  <defs
     id="defs6">
    <rect
       x="201.62867"
       y="501.35116"
       width="364.71445"
       height="174.67709"
       id="rect81969" />
    <rect
       x="401.3895"
       y="42.822038"
       width="323.27724"
       height="185.06155"
       id="rect69514" />
    <rect
       x="573.97381"
       y="115.64617"
       width="208.37841"
       height="211.9498"
       id="rect33310" />
    <rect
       x="523.81811"
       y="120.35791"
       width="236.03994"
       height="103.3301"
       id="rect9936" />
    <rect
       x="573.97381"
       y="115.64617"
       width="208.37841"
       height="211.9498"
       id="rect46857" />
    <rect
       x="573.97381"
       y="115.64617"
       width="208.37841"
       height="211.9498"
       id="rect50873" />
    <rect
       x="573.97381"
       y="115.64617"
       width="208.37841"
       height="211.9498"
       id="rect51015" />
    <rect
       x="401.3895"
       y="42.822038"
       width="323.27724"
       height="185.06155"
       id="rect76704" />
    <rect
       x="573.97381"
       y="115.64617"
       width="208.37841"
       height="211.9498"
       id="rect77022" />
    <rect
       x="573.97381"
       y="115.64617"
       width="208.37841"
       height="211.9498"
       id="rect77044" />
    <rect
       x="573.97381"
       y="115.64617"
       width="208.37841"
       height="211.9498"
       id="rect89177" />
  </defs>
  <metadata
     id="metadata938">
    <rdf:RDF>
      <cc:Work
         rdf:about="">
        <dc:title>Bottle</dc:title>
      </cc:Work>
    </rdf:RDF>
  </metadata>
  <g
     id="g89312"
     style="display:inline">
    <text
       xml:space="preserve"
       transform="matrix(0,-0.14340304,0.18363434,0,5.2287805,128.73137)"
       id="text89175"
       style="font-style:normal;font-variant:normal;font-weight:bold;font-stretch:normal;font-size:96px;line-height:125%;font-family:sans-serif;-inkscape-font-specification:'sans-serif, Bold';font-variant-ligatures:normal;font-variant-caps:normal;font-variant-numeric:normal;font-variant-east-asian:normal;letter-spacing:0px;word-spacing:0px;white-space:pre;shape-inside:url(#rect89177);display:inline;fill:#b3740d;fill-opacity:1;stroke:none;stroke-width:1px;stroke-linecap:butt;stroke-linejoin:miter;stroke-opacity:1"><tspan
         x="573.97461"
         y="200.58398"
         id="tspan1745">cm</tspan></text>
    <polygon
       points="332.427,406.213 261.213,406.213 261.213,86.213 332.427,86.213 246.213,0 160,86.213 231.213,86.213 231.213,406.213 160,406.213 246.213,492.427 "
       id="polygon89203"
       transform="matrix(0.05325914,0,0,0.11251281,15.540144,8.7840148)"
       style="display:inline;fill:#b3740d;fill-opacity:1;stroke:none" />
    <path
       d="m 22.034076,16.005892 c 0.500401,0 0.906191,-0.560916 0.906191,-1.252608 V 9.7426281 c 0,-0.6916899 -0.40579,-1.2526073 -0.906191,-1.2526073 H -17.84002 c -0.500401,-1.119e-4 -0.906192,0.5609174 -0.906192,1.2526073 v 5.0106559 c 0,0.691692 0.405791,1.252608 0.906192,1.252608 h 3.171836 v 5.010654 h -3.171836 c -0.500401,0 -0.906192,0.560916 -0.906192,1.252609 v 10.021196 c 0,0.691691 0.405791,1.252608 0.906192,1.252608 h 3.171836 v 5.010654 h -3.171836 c -0.500401,0 -0.906192,0.560917 -0.906192,1.252608 v 10.021197 c 0,0.691692 0.405791,1.252609 0.906192,1.252609 h 3.171836 v 5.010654 h -3.171836 c -0.500401,0 -0.906192,0.560918 -0.906192,1.252607 v 5.010655 c 0,0.691691 0.405791,1.252608 0.906192,1.252608 h 39.874096 c 0.500401,0 0.906191,-0.560917 0.906191,-1.252608 v -5.010655 c 0,-0.69169 -0.40579,-1.252607 -0.906191,-1.252607 H 18.86224 v -5.010654 h 3.171836 c 0.500401,0 0.906191,-0.560917 0.906191,-1.252609 V 39.806221 c 0,-0.691692 -0.40579,-1.252608 -0.906191,-1.252608 H 18.86224 v -5.010654 h 3.171836 c 0.500401,0 0.906191,-0.560917 0.906191,-1.252608 V 22.269155 c 0,-0.691693 -0.40579,-1.252609 -0.906191,-1.252609 H 18.86224 v -5.010654 z m -0.906274,42.590343 v 2.505329 h -38.061548 v -2.505329 z m -33.983519,-2.505329 v -5.010655 h 2.718659 v 5.010655 z m 4.5311249,0 v -5.010655 h 7.2497838 v 5.010655 z m 9.0622501,0 v -5.010655 h 2.7186587 v 5.010655 z m 4.5312064,0 v -5.010655 h 7.2497846 v 5.010655 z m 9.0622496,0 v -5.010655 h 2.71866 v 5.010655 z m 6.796688,-7.515982 h -38.061548 v -2.505328 h 38.061548 z m 0,-7.515871 v 2.505328 h -38.061548 v -2.505328 z m -33.983519,-2.505326 v -5.010656 h 2.718659 v 5.010656 z m 4.5311249,0 v -5.010656 h 7.2497838 v 5.010656 z m 9.0622501,0 v -5.010656 h 2.7186587 v 5.010656 z m 4.5312064,0 v -5.010656 h 7.2497846 v 5.010656 z m 9.0622496,0 v -5.010656 h 2.71866 v 5.010656 z m 6.796688,-7.515983 h -38.061548 v -2.505328 h 38.061548 z m 0,-7.51587 v 2.505328 h -38.061548 v -2.505328 z m -33.983519,-2.505328 v -5.010654 h 2.718659 v 5.010654 z m 4.5311249,0 v -5.010654 h 7.2497838 v 5.010654 z m 9.0622501,0 v -5.010654 h 2.7186587 v 5.010654 z m 4.5312064,0 v -5.010654 h 7.2497846 v 5.010654 z m 9.0622496,0 v -5.010654 h 2.71866 v 5.010654 z m -31.26486,-7.515982 v -2.505327 h 38.061548 v 2.505327 z"
       id="path89197"
       style="display:inline;fill:#b3740d;fill-opacity:1;stroke:none;stroke-width:0.0957249" />
  </g>
</svg>
