<?xml version="1.0" encoding="UTF-8" standalone="no"?>
<!-- Uploaded to: SVG Repo, www.svgrepo.com, Generator: SVG Repo Mixer Tools -->

<svg
   width="800px"
   height="800px"
   viewBox="-20 0 64 64"
   version="1.1"
   id="svg13"
   xmlns="http://www.w3.org/2000/svg"
   xmlns:svg="http://www.w3.org/2000/svg"
   xmlns:rdf="http://www.w3.org/1999/02/22-rdf-syntax-ns#"
   xmlns:cc="http://creativecommons.org/ns#"
   xmlns:dc="http://purl.org/dc/elements/1.1/">
  <title
     id="title2">Bottle</title>
  <desc
     id="desc4">Created with Sketch.</desc>
  <defs
     id="defs6">
    <rect
       x="201.62867"
       y="501.35116"
       width="364.71445"
       height="174.67709"
       id="rect81969" />
    <rect
       x="401.3895"
       y="42.822038"
       width="323.27724"
       height="185.06155"
       id="rect69514" />
    <rect
       x="573.97381"
       y="115.64617"
       width="208.37841"
       height="211.9498"
       id="rect33310" />
    <rect
       x="523.81811"
       y="120.35791"
       width="236.03994"
       height="103.3301"
       id="rect9936" />
    <rect
       x="573.97381"
       y="115.64617"
       width="208.37841"
       height="211.9498"
       id="rect46857" />
    <rect
       x="573.97381"
       y="115.64617"
       width="208.37841"
       height="211.9498"
       id="rect50873" />
    <rect
       x="573.97381"
       y="115.64617"
       width="208.37841"
       height="211.9498"
       id="rect51015" />
    <rect
       x="401.3895"
       y="42.822038"
       width="323.27724"
       height="185.06155"
       id="rect76704" />
    <rect
       x="573.97381"
       y="115.64617"
       width="208.37841"
       height="211.9498"
       id="rect77022" />
    <rect
       x="573.97381"
       y="115.64617"
       width="208.37841"
       height="211.9498"
       id="rect77044" />
  </defs>
  <metadata
     id="metadata938">
    <rdf:RDF>
      <cc:Work
         rdf:about="">
        <dc:title>Bottle</dc:title>
      </cc:Work>
    </rdf:RDF>
  </metadata>
  <path
     d="m 41.387597,16.005892 c 0.73788,0 1.336251,-0.560916 1.336251,-1.252608 V 9.7426281 c 0,-0.6916899 -0.598371,-1.2526073 -1.336251,-1.2526073 h -58.797556 c -0.737882,-1.119e-4 -1.336253,0.5609174 -1.336253,1.2526073 v 5.0106559 c 0,0.691692 0.598371,1.252608 1.336253,1.252608 h 4.677127 v 5.010654 h -4.677127 c -0.737882,0 -1.336253,0.560916 -1.336253,1.252609 v 10.021196 c 0,0.691691 0.598371,1.252608 1.336253,1.252608 h 4.677127 v 5.010654 h -4.677127 c -0.737882,0 -1.336253,0.560917 -1.336253,1.252608 v 10.021197 c 0,0.691692 0.598371,1.252609 1.336253,1.252609 h 4.677127 v 5.010654 h -4.677127 c -0.737882,0 -1.336253,0.560918 -1.336253,1.252607 v 5.010655 c 0,0.691691 0.598371,1.252608 1.336253,1.252608 h 58.797556 c 0.73788,0 1.336251,-0.560917 1.336251,-1.252608 v -5.010655 c 0,-0.69169 -0.598371,-1.252607 -1.336251,-1.252607 H 36.71047 v -5.010654 h 4.677127 c 0.73788,0 1.336251,-0.560917 1.336251,-1.252609 V 39.806221 c 0,-0.691692 -0.598371,-1.252608 -1.336251,-1.252608 H 36.71047 v -5.010654 h 4.677127 c 0.73788,0 1.336251,-0.560917 1.336251,-1.252608 V 22.269155 c 0,-0.691693 -0.598371,-1.252609 -1.336251,-1.252609 H 36.71047 v -5.010654 z m -1.336375,42.590343 v 2.505329 h -56.124806 v -2.505329 z m -50.111426,-2.505329 v -5.010655 h 4.0088808 v 5.010655 z m 6.6815073,0 V 51.080251 H 7.3116915 v 5.010655 z m 13.3630152,0 v -5.010655 h 4.0088805 v 5.010655 z m 6.6816275,0 v -5.010655 h 10.690388 v 5.010655 z m 13.363015,0 v -5.010655 h 4.008881 v 5.010655 z m 10.022261,-7.515982 h -56.124806 v -2.505328 h 56.124806 z m 0,-7.515871 v 2.505328 h -56.124806 v -2.505328 z m -50.111426,-2.505326 v -5.010656 h 4.0088808 v 5.010656 z m 6.6815073,0 V 33.543071 H 7.3116915 v 5.010656 z m 13.3630152,0 v -5.010656 h 4.0088805 v 5.010656 z m 6.6816275,0 v -5.010656 h 10.690388 v 5.010656 z m 13.363015,0 v -5.010656 h 4.008881 v 5.010656 z m 10.022261,-7.515983 h -56.124806 v -2.505328 h 56.124806 z m 0,-7.51587 v 2.505328 h -56.124806 v -2.505328 z m -50.111426,-2.505328 v -5.010654 h 4.0088808 v 5.010654 z m 6.6815073,0 V 16.005892 H 7.3116915 v 5.010654 z m 13.3630152,0 v -5.010654 h 4.0088805 v 5.010654 z m 6.6816275,0 v -5.010654 h 10.690388 v 5.010654 z m 13.363015,0 v -5.010654 h 4.008881 v 5.010654 z m -46.102545,-7.515982 v -2.505327 h 56.124806 v 2.505327 z"
     id="path2-3"
     style="display:inline;stroke-width:0.116241;stroke:none;fill:#b3740d;fill-opacity:1" />
</svg>
